<?xml version="1.0" encoding="utf-8"?>
<!-- Generator: Adobe Illustrator 22.1.0, SVG Export Plug-In . SVG Version: 6.00 Build 0)  -->
<svg version="1.1" id="Layer_1" xmlns="http://www.w3.org/2000/svg" xmlns:xlink="http://www.w3.org/1999/xlink" x="0px" y="0px"
	 viewBox="0 0 168 168" style="enable-background:new 0 0 168 168;" xml:space="preserve">
<style type="text/css">
	.st0{fill:url(#SVGID_1_);}
</style>
<linearGradient id="SVGID_1_" gradientUnits="userSpaceOnUse" x1="7.9882" y1="8.0118" x2="132.4395" y2="132.463">
	<stop  offset="0" style="stop-color:#52BAFF"/>
	<stop  offset="1" style="stop-color:#0099FF"/>
</linearGradient>
<path class="st0" d="M84,0.3L84,0.3C37.7,0.3,0.3,37.8,0.3,84c0,46.3,37.5,83.7,83.7,83.7c46.3,0,83.7-37.5,83.7-83.7
	C167.7,37.8,130.2,0.3,84,0.3z M113.2,41.7c7.5,0,13.7,6.1,13.7,13.7c0,7.5-6.1,13.7-13.7,13.7c-7.5,0-13.7-6.1-13.7-13.7
	C99.5,47.8,105.6,41.7,113.2,41.7z M54.8,41.7c7.5,0,13.7,6.1,13.7,13.7c0,7.5-6.1,13.7-13.7,13.7c-7.5,0-13.7-6.1-13.7-13.7
	C41.2,47.8,47.3,41.7,54.8,41.7z M142.6,92.7c-4.1,29.1-29.3,51-58.6,51c-29.3,0-53.9-21-58.5-49.9c-0.8-4.9,2.6-9.5,7.5-10.3
	c4.9-0.8,9.5,2.6,10.3,7.5c3.2,20.1,20.3,34.7,40.7,34.7c20.4,0,38-15.2,40.8-35.5c0.7-4.9,5.2-8.4,10.2-7.7
	C139.9,83.2,143.3,87.7,142.6,92.7z"/>
</svg>
